# xmcd
#
# Track frame offsets: 
#        150
#        16880
#        33310
#        56105
#        75465
#        91707
#        112077
#        133405
#        153227
#        170860
#
# Disc length: 2558 seconds
#
# Revision: 3
# Processed by: cddbd v1.5.2PL0 Copyright (c) Steve Scherf et al.
# Submitted via: ExactAudioCopy v1.0b3
#
DISCID=7d09fc0a
DTITLE=Various Artist - Da Vu Tinh He 1
DYEAR=1990
DGENRE=
TTITLE0=Ngoc Lan - Moi tim
TTITLE1=Le Hang - Uoc hen
TTITLE2=Linda Trang Dai - Ai bieu anh lam thinh
TTITLE3=Kieu Nga - Nguoi tu dau toi
TTITLE4=Ngoc Lan - Me hien yeu dau
TTITLE5=Linda Trang Dai - Hay den ben chang
TTITLE6=Le Hang - Trung Vuong khung cua mua thu
TTITLE7=Kieu Nga - Sao khong den ben em
TTITLE8=Linda Trang Dai - Chieu qua pho
TTITLE9=Kieu Nga - Dang tien nu
EXTD=
EXTT0=
EXTT1=
EXTT2=
EXTT3=
EXTT4=
EXTT5=
EXTT6=
EXTT7=
EXTT8=
EXTT9=
PLAYORDER=
